<svg width="58" height="82" viewBox="0 0 58 82" fill="none" xmlns="http://www.w3.org/2000/svg">
<path d="M0 15.3436C0 6.87099 6.87099 0 15.3436 0H41.6744C50.147 0 57.018 6.87099 57.018 15.3436C57.018 20.7091 54.2632 25.4339 50.099 28.1727C54.2632 30.9114 57.018 35.6362 57.018 41.0017C57.018 49.4743 50.147 56.3453 41.6744 56.3453H41.3381C37.366 56.3453 33.7463 54.8398 31.0236 52.3573V66.4996C31.0236 75.0844 23.9764 82.0034 15.4237 82.0034C6.96709 82.0034 0 75.1484 0 66.6598C0 61.2944 2.7548 56.5695 6.91904 53.8308C2.7548 51.092 0 46.3672 0 41.0017C0 35.6362 2.7548 30.9114 6.91904 28.1727C2.7548 25.4339 0 20.7091 0 15.3436ZM25.9944 30.6872H15.3436C9.64181 30.6872 5.02911 35.2999 5.02911 41.0017C5.02911 46.6715 9.60977 51.2842 15.2795 51.3162H25.9944V30.6872ZM31.0236 41.0017C31.0236 46.7035 35.6363 51.3162 41.3381 51.3162H41.6744C47.3762 51.3162 51.9889 46.7035 51.9889 41.0017C51.9889 35.2999 47.3762 30.6872 41.6744 30.6872H41.3381C35.6363 30.6872 31.0236 35.2999 31.0236 41.0017ZM15.3436 56.3453H15.2795C9.60977 56.3773 5.02911 60.99 5.02911 66.6598C5.02911 72.3296 9.70587 76.9743 15.4237 76.9743C21.2376 76.9743 25.9944 72.2655 25.9944 66.4836V56.3293H15.3436V56.3453ZM15.3436 5.02912C9.64181 5.02912 5.02911 9.64181 5.02911 15.3436C5.02911 21.0454 9.64181 25.6581 15.3436 25.6581H25.9944V5.02912H15.3436ZM31.0236 25.6581H41.6744C47.3762 25.6581 51.9889 21.0454 51.9889 15.3436C51.9889 9.64181 47.3762 5.02912 41.6744 5.02912H31.0236V25.6581Z" fill="#111111"/>
</svg>
