<svg width="137" height="84" viewBox="0 0 137 84" fill="none" xmlns="http://www.w3.org/2000/svg">
<path d="M67.3605 83.4788C66.9133 83.4788 66.466 83.351 66.0614 83.138L61.9725 80.7102C61.3549 80.3695 61.653 80.2417 61.866 80.1778C62.6753 79.901 62.8456 79.8371 63.7188 79.326C63.804 79.2834 63.9318 79.3047 64.0169 79.3473L67.1688 81.2213C67.2753 81.2852 67.4457 81.2852 67.5521 81.2213L79.8615 74.1083C79.9679 74.0444 80.0531 73.9167 80.0531 73.7676V59.5629C80.0531 59.4138 79.9892 59.2861 79.8615 59.2222L67.5521 52.1305C67.4457 52.0666 67.2966 52.0666 67.1688 52.1305L54.8595 59.2222C54.7317 59.2861 54.6678 59.4351 54.6678 59.5629V73.7676C54.6678 73.8954 54.753 74.0232 54.8595 74.087L58.2243 76.025C60.0558 76.9408 61.1845 75.8546 61.1845 74.7898V60.7555C61.1845 60.5638 61.3336 60.3935 61.5466 60.3935H63.1012C63.2929 60.3935 63.4632 60.5425 63.4632 60.7555V74.7898C63.4632 77.2389 62.1429 78.6232 59.8216 78.6232C59.1188 78.6232 58.5438 78.6232 56.9891 77.8565L53.7521 76.0037C52.9641 75.5352 52.453 74.6833 52.453 73.7676V59.5629C52.453 58.6472 52.9428 57.774 53.7521 57.3268L66.0614 50.2138C66.8494 49.7666 67.8716 49.7666 68.6383 50.2138L80.9476 57.3268C81.7355 57.7953 82.2467 58.6472 82.2467 59.5629V73.7676C82.2467 74.6833 81.7568 75.5565 80.9476 76.0037L68.6383 83.1167C68.2762 83.351 67.829 83.4788 67.3605 83.4788ZM77.3059 69.4657C77.3059 66.8037 75.517 66.1009 71.7262 65.5898C67.8929 65.0787 67.5096 64.8231 67.5096 63.9287C67.5096 63.1833 67.829 62.2037 70.6614 62.2037C73.1957 62.2037 74.1327 62.7574 74.5161 64.4611C74.5587 64.6315 74.6864 64.7379 74.8568 64.7379H76.454C76.5605 64.7379 76.6457 64.6953 76.7096 64.6314C76.7735 64.5463 76.8161 64.4611 76.7948 64.3546C76.5392 61.4157 74.6012 60.0527 70.6614 60.0527C67.1475 60.0527 65.0605 61.5435 65.0605 64.0139C65.0605 66.7185 67.1475 67.4426 70.5123 67.7833C74.5374 68.1879 74.8568 68.7629 74.8568 69.5509C74.8568 70.9352 73.7494 71.5102 71.1512 71.5102C67.8929 71.5102 67.1688 70.7009 66.9345 69.0824C66.9133 68.912 66.7642 68.7842 66.5725 68.7842H64.9753C64.7836 68.7842 64.6132 68.9333 64.6132 69.1463C64.6132 71.212 65.742 73.6824 71.1299 73.6824C75.0698 73.6824 77.3059 72.1491 77.3059 69.4657ZM88.9124 58.7962C88.9124 60.0953 87.8476 61.1601 86.5485 61.1601C85.2494 61.1601 84.1846 60.0953 84.1846 58.7962C84.1846 57.4546 85.292 56.4323 86.5485 56.4323C87.8263 56.411 88.9124 57.4546 88.9124 58.7962ZM88.5291 58.7962C88.5291 57.6888 87.6346 56.8157 86.5272 56.8157C85.4411 56.8157 84.5467 57.6888 84.5467 58.7962C84.5467 59.9037 85.4411 60.7981 86.5272 60.7981C87.6346 60.7768 88.5291 59.8824 88.5291 58.7962ZM87.5708 60.1166H87.0171C86.9958 59.9888 86.9106 59.3074 86.9106 59.2861C86.868 59.137 86.8254 59.0518 86.6337 59.0518H86.1652V60.1166H85.6541V57.4546H86.5698C86.8893 57.4546 87.5069 57.4546 87.5069 58.1573C87.5069 58.6472 87.1874 58.7536 86.9958 58.8175C87.3578 58.8388 87.3791 59.0731 87.443 59.4138C87.4643 59.6268 87.5069 59.9888 87.5708 60.1166ZM86.9745 58.2425C86.9745 57.8805 86.7189 57.8805 86.5911 57.8805H86.1652V58.6259H86.5698C86.9106 58.6259 86.9745 58.3916 86.9745 58.2425ZM29.2399 27.8952C29.2399 27.3202 28.9418 26.8091 28.452 26.5322L15.3973 19.0146C15.1843 18.8868 14.9288 18.8229 14.6732 18.8016H14.5454C14.2899 18.8016 14.0556 18.8868 13.8214 19.0146L0.787966 26.5322C0.298149 26.8091 0 27.3415 0 27.8952L0.0212964 48.1267C0.0212964 48.4036 0.170371 48.6592 0.404631 48.8082C0.638892 48.9573 0.937041 48.9573 1.1926 48.8082L8.94448 44.3573C9.4343 44.0591 9.73245 43.548 9.73245 42.9943V33.5387C9.73245 32.985 10.0306 32.4526 10.5204 32.1758L13.8214 30.2804C14.0769 30.1313 14.3325 30.0674 14.6093 30.0674C14.8862 30.0674 15.163 30.1313 15.3973 30.2804L18.6982 32.1758C19.188 32.4526 19.4862 32.985 19.4862 33.5387V42.9943C19.4862 43.548 19.7843 44.0804 20.2742 44.3573L28.0261 48.8082C28.2603 48.9573 28.5798 48.9573 28.814 48.8082C29.0483 48.6805 29.1974 48.4036 29.1974 48.1267L29.2399 27.8952ZM100.625 5.81082V43.3777C100.625 43.9314 100.327 44.4638 99.8375 44.7406L86.7828 52.2795C86.293 52.5564 85.6967 52.5564 85.2069 52.2795L72.1522 44.7406C71.6623 44.4638 71.3642 43.9314 71.3642 43.3777V28.2998C71.3642 27.7461 71.6623 27.2137 72.1522 26.9368L85.2069 19.3979C85.6967 19.1211 86.293 19.1211 86.7828 19.3979L90.0411 21.272C90.4032 21.485 90.8717 21.2081 90.8717 20.8035V0.784873C90.8717 0.188574 91.5106 -0.19476 92.043 0.103389L99.8162 4.44785C100.306 4.70341 100.625 5.23582 100.625 5.81082ZM90.8291 33.2619C90.8291 33.1128 90.7439 32.985 90.6374 32.9211L86.1652 30.323C86.0374 30.2591 85.8883 30.2591 85.7606 30.323L81.2883 32.9211C81.1605 32.985 81.0966 33.1128 81.0966 33.2619V38.4369C81.0966 38.586 81.1818 38.7137 81.2883 38.7776L85.7606 41.3545C85.8883 41.4184 86.0374 41.4184 86.1439 41.3545L90.6161 38.7776C90.7439 38.7137 90.8078 38.586 90.8078 38.4369V33.2619H90.8291ZM135.509 33.1128C135.999 32.8359 136.297 32.3035 136.297 31.7498V28.1081C136.297 27.5544 135.999 27.022 135.509 26.7452L122.539 19.2062C122.05 18.9294 121.453 18.9294 120.963 19.2062L107.909 26.7452C107.419 27.022 107.121 27.5544 107.121 28.1081V43.186C107.121 43.761 107.419 44.2721 107.909 44.549L120.878 51.9388C121.347 52.2157 121.943 52.2157 122.433 51.9388L130.27 47.573C130.802 47.2749 130.802 46.5082 130.27 46.2101L117.13 38.6712C116.875 38.5221 116.726 38.2665 116.726 37.9897V33.2619C116.726 32.985 116.875 32.7295 117.13 32.5804L121.219 30.2165C121.453 30.0674 121.773 30.0674 122.007 30.2165L126.096 32.5804C126.33 32.7295 126.501 32.985 126.501 33.2619V36.9674C126.501 37.5637 127.161 37.9471 127.693 37.6489L135.509 33.1128ZM119.047 33.8582C118.962 33.9221 118.898 34.0072 118.898 34.1137V37.01C118.898 37.1165 118.962 37.223 119.047 37.2656L121.56 38.7137C121.645 38.7776 121.773 38.7776 121.858 38.7137L124.371 37.2656C124.456 37.2017 124.52 37.1165 124.52 37.01V34.1137C124.52 34.0072 124.456 33.9008 124.371 33.8582L121.858 32.41C121.773 32.3461 121.645 32.3461 121.56 32.41L119.047 33.8582ZM64.9114 43.1221V28.1294C64.9114 27.5757 64.5706 27.0433 64.0808 26.7665L51.0687 19.2701C50.6215 19.0146 50.0039 18.972 49.4928 19.2701L36.4807 26.7665C35.9909 27.0433 35.6502 27.5544 35.6502 28.1294V43.1221C35.6502 43.7184 36.0548 44.2295 36.502 44.4851L49.5354 51.9814C50.0465 52.2795 50.6428 52.2582 51.1113 51.9814L64.1021 44.4851C64.4855 44.2721 64.7623 43.9101 64.8688 43.4841C64.8901 43.3777 64.9114 43.2499 64.9114 43.1221ZM49.0882 16.5229L48.9178 16.6294H49.1521L49.0882 16.5229ZM65.316 44.2508L65.2308 44.1017V44.2934L65.316 44.2508Z" fill="#111111"/>
</svg>
