<svg width="107" height="94" viewBox="0 0 107 94" fill="none" xmlns="http://www.w3.org/2000/svg">
<path d="M86.8534 30.1531C85.7319 29.7793 84.6104 29.4262 83.4889 29.0939C83.6758 28.3255 83.8419 27.557 84.0081 26.7886C86.5626 14.4107 84.8804 4.4626 79.2106 1.1812C73.7485 -1.95483 64.8389 1.30581 55.8254 9.15626C54.9324 9.92469 54.0601 10.7347 53.2294 11.5446C52.6686 11.0046 52.0871 10.4647 51.5056 9.94546C42.056 1.55503 32.5856 -1.97559 26.9158 1.32658C21.4745 4.48337 19.8546 13.8499 22.1391 25.5633C22.3675 26.7263 22.6168 27.8686 22.9075 29.0316C21.5783 29.4054 20.2699 29.8208 19.0446 30.2569C7.95429 34.0991 0 40.1634 0 46.4355C0 52.9152 8.4735 59.4157 20 63.3617C20.9345 63.6733 21.8691 63.9848 22.8244 64.2548C22.5129 65.5009 22.2429 66.7262 21.9937 67.9931C19.813 79.5195 21.516 88.6576 26.9574 91.7936C32.5648 95.0335 41.9937 91.7106 51.1733 83.6732C51.9002 83.0294 52.6271 82.3648 53.354 81.6587C54.2678 82.5517 55.2231 83.4032 56.1785 84.2339C65.0673 91.8767 73.8524 94.9712 79.2729 91.8352C84.8804 88.5953 86.708 78.7719 84.3404 66.8093C84.1535 65.8955 83.9458 64.9609 83.7173 64.0055C84.3819 63.8186 85.0257 63.6109 85.6696 63.4033C97.6529 59.4365 106.334 53.0191 106.334 46.4355C106.334 40.1427 98.1514 34.0368 86.8534 30.1531ZM58.7537 12.5207C66.4796 5.79178 73.6862 3.1542 76.9676 5.04412C80.4775 7.05865 81.8274 15.1999 79.626 25.8956C79.4806 26.6017 79.3352 27.2871 79.1483 27.9724C74.5377 26.934 69.8648 26.1863 65.1712 25.771C62.4713 21.908 59.5222 18.2113 56.3238 14.743C57.1338 13.9745 57.923 13.2476 58.7537 12.5207ZM34.7247 57.2143C35.7839 59.0211 36.8639 60.828 38.0061 62.5933C34.7663 62.2402 31.5472 61.721 28.3696 61.0357C29.2834 58.045 30.4257 54.9505 31.7549 51.7937C32.7102 53.6214 33.6863 55.4282 34.7247 57.2143ZM28.4319 32.2299C31.4226 31.5653 34.6001 31.0254 37.9023 30.61C36.8016 32.3338 35.7216 34.0991 34.704 35.8852C33.6863 37.6505 32.6894 39.4573 31.7549 41.2849C30.4464 38.1904 29.3457 35.1583 28.4319 32.2299ZM34.1224 46.5393C35.4932 43.6733 36.9885 40.8696 38.5669 38.1074C40.1453 35.3452 41.8483 32.6661 43.6344 30.0285C46.7496 29.8 49.9272 29.6754 53.1671 29.6754C56.4069 29.6754 59.6053 29.8 62.6997 30.0285C64.465 32.6453 66.1473 35.3244 67.7465 38.0658C69.3456 40.8073 70.8409 43.611 72.2532 46.4563C70.8617 49.3223 69.3664 52.1468 67.7672 54.9298C66.1888 57.692 64.5066 60.3711 62.7413 63.0294C59.6468 63.2579 56.4277 63.3617 53.1671 63.3617C49.9064 63.3617 46.7496 63.2579 43.6967 63.071C41.8898 60.4334 40.1868 57.7335 38.5877 54.9713C36.9885 52.2091 35.5139 49.4054 34.1224 46.5393ZM71.6301 57.1727C72.6893 55.3451 73.6862 53.4967 74.6623 51.6276C75.9915 54.639 77.1545 57.692 78.1722 60.828C74.9531 61.5549 71.6924 62.1156 68.411 62.4895C69.5325 60.7449 70.5917 58.9588 71.6301 57.1727ZM74.6208 41.2849C73.6447 39.4573 72.6478 37.6297 71.6094 35.8436C70.5917 34.0783 69.5325 32.3338 68.4318 30.61C71.7755 31.0254 74.9739 31.5861 77.9645 32.2715C77.0092 35.3452 75.8877 38.3358 74.6208 41.2849ZM53.2086 17.9205C55.3893 20.2881 57.4453 22.7803 59.356 25.3556C55.2439 25.1687 51.111 25.1687 46.9988 25.3556C49.0341 22.6765 51.1318 20.1843 53.2086 17.9205ZM29.1173 5.1895C32.6064 3.1542 40.353 6.06177 48.5149 13.2892C49.0341 13.7461 49.5534 14.2445 50.0933 14.743C46.8742 18.2113 43.9044 21.908 41.1837 25.771C36.49 26.1863 31.8379 26.9132 27.2273 27.9309C26.9574 26.8717 26.7289 25.7917 26.5005 24.7118C24.5482 14.6599 25.8359 7.07942 29.1173 5.1895ZM24.029 59.9349C23.1567 59.6857 22.3052 59.4157 21.4537 59.125C17.0301 57.7335 12.0041 55.532 8.36966 52.6452C6.27205 51.1915 4.8598 48.9485 4.4652 46.4355C4.4652 42.6349 11.028 37.7751 20.4984 34.4729C21.6822 34.0575 22.8868 33.6837 24.0913 33.3307C25.5036 37.8374 27.2066 42.2611 29.1796 46.5393C27.1858 50.8799 25.462 55.3659 24.029 59.9349ZM48.2449 80.288C44.8182 83.424 40.8514 85.9162 36.5316 87.6192C34.2263 88.7199 31.5679 88.8238 29.2003 87.8892C25.8982 85.9785 24.5275 78.6473 26.3966 68.7823C26.6251 67.6192 26.8743 66.4562 27.165 65.3139C31.8172 66.3108 36.5108 66.9962 41.2668 67.3493C44.0082 71.2329 47.0196 74.9505 50.2387 78.4396C49.5741 79.0834 48.9095 79.7064 48.2449 80.288ZM53.3332 75.2412C51.2148 72.9567 49.0965 70.423 47.0404 67.7023C49.0341 67.7854 51.0902 67.8269 53.1671 67.8269C55.3062 67.8269 57.4038 67.7854 59.4806 67.6815C57.57 70.3191 55.5139 72.8321 53.3332 75.2412ZM80.4775 81.4717C80.2906 84.0055 79.0445 86.3731 77.0507 87.9723C73.7485 89.8829 66.708 87.3907 59.1068 80.8695C58.2345 80.1218 57.3623 79.3118 56.4692 78.4811C59.6468 74.9712 62.5751 71.2537 65.2335 67.3493C69.9894 66.9547 74.7246 66.2278 79.3975 65.1686C79.6052 66.0201 79.7921 66.8716 79.9583 67.7023C80.9759 72.1883 81.1421 76.8612 80.4775 81.4717ZM84.2573 59.1457C83.6758 59.3327 83.0943 59.5196 82.492 59.6857C81.0382 55.1582 79.2521 50.7346 77.1961 46.4355C79.1898 42.1987 80.8721 37.8374 82.2843 33.3722C83.3643 33.6837 84.4027 34.016 85.3996 34.3483C95.0776 37.6712 101.869 42.6141 101.869 46.394C101.869 50.4646 94.6207 55.719 84.2573 59.1457ZM53.1671 56.0305C58.4215 56.0305 62.679 51.773 62.679 46.5186C62.679 41.2642 58.4215 37.0067 53.1671 37.0067C47.9127 37.0067 43.6551 41.2642 43.6551 46.5186C43.6551 51.773 47.9127 56.0305 53.1671 56.0305Z" fill="#111111"/>
</svg>
