<svg width="120" height="72" viewBox="0 0 120 72" fill="none" xmlns="http://www.w3.org/2000/svg">
<path d="M59.7003 0C43.7864 0 33.8239 7.96626 29.8501 23.8801C35.8202 15.9139 42.779 12.9288 50.7452 14.9251C55.2787 16.0631 58.5249 19.3653 62.1256 23.0033C67.9837 28.936 74.756 35.8202 89.5504 35.8202C105.464 35.8202 115.427 27.8539 119.401 11.9401C113.431 19.9063 106.472 22.8913 98.5055 20.8951C93.972 19.7571 90.7258 16.4549 87.1251 12.8169C81.267 6.88419 74.4948 0 59.7003 0ZM29.8501 35.8202C13.9363 35.8202 3.9738 43.7864 0 59.7003C5.97003 51.734 12.9288 48.749 20.8951 50.7452C25.4286 51.8833 28.6748 55.1854 32.2755 58.8234C38.1336 64.7561 44.9058 71.6403 59.7003 71.6403C75.6142 71.6403 85.5766 63.6741 89.5504 47.7602C83.5804 55.7265 76.6216 58.7115 68.6553 56.7153C64.1218 55.5772 60.8756 52.2751 57.275 48.6371C51.4169 42.7044 44.6446 35.8202 29.8501 35.8202Z" fill="#111111"/>
</svg>
